<?xml version="1.0" encoding="UTF-8" standalone="no"?>
<svg width="224px" height="224px" viewBox="0 0 224 224" version="1.1" xmlns="http://www.w3.org/2000/svg"
     xmlns:xlink="http://www.w3.org/1999/xlink" xmlns:sketch="http://www.bohemiancoding.com/sketch/ns">
    <!-- Generator: Sketch 3.0.1 (7597) - http://www.bohemiancoding.com/sketch -->
    <title>warning-icon</title>
    <defs></defs>
    <g stroke="none" stroke-width="1" fill="none" fill-rule="evenodd">
        <path d="M112.001087,0 C50.1442226,0 0,50.1439223 0,112.000544 C0,173.856078 50.1442226,224 112.001087,224 C173.856321,224 224,173.856078 224,112.000544 C224,50.1439223 173.855777,0 112.001087,0 L112.001087,0 Z M95,38 L128,38 L128,139 L95,139 L95,38 L95,38 Z M112,191 C102.058632,191 94,182.941066 94,173 C94,163.058934 102.058632,155 112,155 C121.941368,155 130,163.058934 130,173 C130,182.941066 121.941368,191 112,191 L112,191 Z"
              id="warning-icon" fill="#F6D423"></path>
    </g>
</svg>