<?xml version="1.0" encoding="utf-8"?>

<!-- License Agreement at http://iconmonstr.com/license/ -->

<!DOCTYPE svg PUBLIC "-//W3C//DTD SVG 1.1//EN" "http://www.w3.org/Graphics/SVG/1.1/DTD/svg11.dtd">
<svg version="1.1" xmlns="http://www.w3.org/2000/svg" xmlns:xlink="http://www.w3.org/1999/xlink" x="0px" y="0px"
	 width="512px" height="512px" viewBox="0 0 512 512" enable-background="new 0 0 512 512" xml:space="preserve">
<path id="thumb-13-icon" d="M256,50C142.229,50,50,142.229,50,256s92.229,206,206,206s206-92.229,206-206S369.771,50,256,50z
	 M351.162,250.874l-10.716,2.84c-3.77,1.14-5.893,5.116-4.753,8.88c1.141,3.769,5.118,5.896,8.882,4.756l11.164-3.348
	c-2.278,14.963-3.378,23.214-13.495,26.277l-8.041,2.558c-3.766,1.138-5.89,5.116-4.755,8.878c1.142,3.767,5.12,5.9,8.887,4.757
	l10.391-3.532c-1.796,13.506-3.094,22.605-12.885,25.568l-7.828,2.831c-3.77,1.138-5.894,5.115-4.756,8.883
	c1.142,3.765,5.119,5.894,8.881,4.75l8.407-2.969c-3.062,21.527-23.866,28.678-50.466,25.682
	c-35.552-4.005-54.589-33.077-134.044-33.077c0-27.397,0-98.366,0-98.366c68.853,0,97.688-46.443,108.665-81.578
	c4.186-13.396,8.43-32.92,24.481-28.306c18.586,5.343,15.929,53.702,4.468,85.664c13.012,9.413,33.578,19.313,68.316,14.978
	C361.172,238.716,359.856,248.409,351.162,250.874z"/>
</svg>
