<?xml version="1.0" encoding="utf-8"?>

<!-- License Agreement at http://iconmonstr.com/license/ -->

<!DOCTYPE svg PUBLIC "-//W3C//DTD SVG 1.1//EN" "http://www.w3.org/Graphics/SVG/1.1/DTD/svg11.dtd">
<svg version="1.1" xmlns="http://www.w3.org/2000/svg" xmlns:xlink="http://www.w3.org/1999/xlink" x="0px" y="0px"
	 width="512px" height="512px" viewBox="0 0 512 512" enable-background="new 0 0 512 512" xml:space="preserve">
<path id="copy-7-icon" d="M294.737,264.133l11.585-35.249l49.854,97.159l-97.242,49.683l11.148-35.057
	c0,0-128.158-67.099-117.645-188.436C188.582,229.189,294.737,264.133,294.737,264.133z M360.277,151.862V50.001H50v310.137h101.723
	v101.861H462V151.862H360.277z M422,421.999H191.723V318.824c-16.594-16.263-29.747-32.959-40-49.757v51.07H90V90.001h230.277
	v61.861H186.427c9.814,15.492,23.18,28.824,37.402,40H422V421.999z"/>
</svg>
