<?xml version="1.0" encoding="utf-8"?>

<!-- License Agreement at http://iconmonstr.com/license/ -->

<!DOCTYPE svg PUBLIC "-//W3C//DTD SVG 1.1//EN" "http://www.w3.org/Graphics/SVG/1.1/DTD/svg11.dtd">
<svg version="1.1" xmlns="http://www.w3.org/2000/svg" xmlns:xlink="http://www.w3.org/1999/xlink" x="0px" y="0px"
	 width="512px" height="512px" viewBox="0 0 512 512" style="enable-background:new 0 0 512 512;" xml:space="preserve">
<path id="anchor-11-icon" d="M451.644,367.393H342.399l17.343,30.042c-45.351,19.938-91.089,22.479-130.002,7.358l98.74-171.022
	c28.604-49.543,75.439-28.845,102.703-76.069c19.799-34.292,8.009-78.297-26.283-98.095c-34.29-19.797-78.297-8.008-98.095,26.284
	c-27.495,47.622,14.321,77.016-14.525,126.979l-98.741,171.024c-32.55-26.14-53.219-67.021-58.628-116.267h34.689l-54.623-94.607
	l-54.621,94.607l32.556-0.001c6.751,72.974,41.525,132.277,97.019,164.317c55.494,32.04,124.24,32.504,190.813,1.862L397.021,462
	L451.644,367.393z M343.005,106.791c8.275-14.33,26.663-19.259,40.995-10.984c14.33,8.273,19.258,26.664,10.984,40.994
	c-8.273,14.331-26.663,19.257-40.994,10.984C339.659,139.511,334.732,121.122,343.005,106.791z"/>
</svg>
