<?xml version="1.0" encoding="UTF-8" standalone="no"?>
<svg width="370px" height="330px" viewBox="0 0 370 330" version="1.1" xmlns="http://www.w3.org/2000/svg"
     xmlns:xlink="http://www.w3.org/1999/xlink" xmlns:sketch="http://www.bohemiancoding.com/sketch/ns">
    <!-- Generator: Sketch 3.0.4 (8054) - http://www.bohemiancoding.com/sketch -->
    <g stroke="none" stroke-width="1" fill="none" fill-rule="evenodd">
        <text font-family="Inconsolata" font-size="140" fill="#DBDBDB">
            <tspan x="0" y="83">1011</tspan>
            <tspan x="0" y="193">0010</tspan>
            <tspan x="0" y="303">1011</tspan>
        </text>
        <path d="M250.062529,349.9665 C190.930511,349.9665 142.994529,302.02846 142.994529,242.900557 C142.994529,183.76854 190.930511,135.8305 250.062529,135.8305 C309.190432,135.8305 357.128471,183.76854 357.128471,242.900557 C357.128471,302.030518 309.190432,349.9665 250.062529,349.9665 L250.062529,349.9665 Z"
              id="gear-9-icon-path-2" fill="#DBDBDB"></path>
        <path d="M250.062529,349.9665 C190.930511,349.9665 142.994529,302.02846 142.994529,242.900557 C142.994529,183.76854 190.930511,135.8305 250.062529,135.8305 C309.190432,135.8305 357.128471,183.76854 357.128471,242.900557 C357.128471,302.030518 309.190432,349.9665 250.062529,349.9665 L250.062529,349.9665 Z M325.5005,253.059 L325.5005,232.739 L314.5215,228.837 C310.3335,227.349 306.9645,224.149 305.2635,220.046 C305.2615,220.046 305.2615,220.044 305.2615,220.042 C303.5545,215.927 303.6755,211.282 305.5875,207.259 L310.5875,196.739 L296.2185,182.372 L285.7005,187.372 C281.6805,189.282 277.0305,189.403 272.9175,187.698 L272.9115,187.698 C268.8065,185.993 265.6125,182.63 264.1245,178.44 L260.2205,167.46 L239.9005,167.46 L235.9965,178.44 C234.5065,182.626 231.3105,185.995 227.2075,187.698 L227.2015,187.698 C223.0895,189.403 218.4445,189.284 214.4215,187.372 L203.9015,182.372 L189.5325,196.739 L194.5345,207.259 C196.4445,211.279 196.5635,215.931 194.8585,220.042 C194.8585,220.044 194.8585,220.046 194.8565,220.048 C193.1555,224.155 189.7905,227.347 185.6025,228.837 L174.6225,232.739 L174.6225,253.059 L185.6025,256.962 C189.7885,258.45 193.1575,261.646 194.8565,265.751 C194.8585,265.753 194.8585,265.755 194.8585,265.757 C196.5655,269.87 196.4465,274.515 194.5345,278.538 L189.5325,289.058 L203.9015,303.425 L214.4215,298.427 C218.4415,296.515 223.0915,296.396 227.2035,298.101 C227.2055,298.101 227.2055,298.103 227.2075,298.103 C231.3145,299.804 234.5045,303.167 235.9965,307.355 L239.9005,318.337 L260.2205,318.337 L264.0995,307.427 C265.6015,303.202 268.8265,299.802 272.9665,298.079 C272.9685,298.079 272.9705,298.077 272.9725,298.077 C277.0465,296.382 281.6485,296.499 285.6345,298.393 L296.2185,303.424 L310.5875,289.057 L305.5855,278.532 C303.6755,274.514 303.5565,269.868 305.2595,265.761 C305.2595,265.759 305.2615,265.757 305.2615,265.757 C306.9685,261.646 310.3335,258.45 314.5255,256.958 L325.5005,253.059 L325.5005,253.059 Z M250.061,270.564 C234.782,270.564 222.396,258.177 222.396,242.899 C222.396,227.62 234.782,215.233 250.061,215.233 C265.34,215.233 277.727,227.62 277.727,242.899 C277.727,258.178 265.34,270.564 250.061,270.564 L250.061,270.564 Z"
              fill="#71A9E9"></path>
    </g>
</svg>

