<?xml version="1.0" encoding="UTF-8" standalone="no"?>
<svg width="335px" height="297px" viewBox="0 0 335 297" version="1.1" xmlns="http://www.w3.org/2000/svg" xmlns:xlink="http://www.w3.org/1999/xlink" xmlns:sketch="http://www.bohemiancoding.com/sketch/ns">
    <!-- Generator: Sketch 3.0.1 (7597) - http://www.bohemiancoding.com/sketch -->
    <g stroke="none" stroke-width="1">
        <path d="M0,296.495 L0,0.068 L334.597,0.068 L334.597,182.808 C324.463,178.418 313.544,175.509 302.112,174.367 L302.112,70.723 L32.485,70.723 L32.485,264.01 L184.615,264.01 C187.516,275.683 192.285,286.626 198.594,296.495 L0,296.495 Z" id="monitoring-3-icon"></path>
        <g transform="translate(214.000000, 186.000000) rotate(-180.000000) translate(-214.000000, -186.000000) translate(106.000000, 76.000000)">
            <g>
                <path d="M137.560843,125 L120,142.561505 L194.797391,217.361717 C197.222821,219.787239 200.401222,221 203.579622,221 C206.758023,221 209.936423,219.787239 212.361854,217.361717 C217.212715,212.510672 217.212715,204.647636 212.361854,199.800211 L137.560843,125 L137.560843,125 Z"></path>
                <path d="M133.230481,117.13709 L134,116.367571 L120.835858,103.203429 L112.632429,95 L91,116.636008 L99.8584152,125.490844 L112.367571,138 L113.333944,137.033627 L114.600966,135.766606 L131.963459,118.404112 L133.230481,117.13709 Z"></path>
                <path d="M73.4029652,5.30681298 C73.3777696,5.20215875 73.3453754,5.10111328 73.3237793,5.00006781 C73.2085998,4.48040541 72.9818402,4.01126574 72.6974909,3.57460497 L72.5931095,3.32199131 L72.5355197,3.37973157 C72.1827826,2.89254807 71.7472602,2.4775399 71.24335,2.12388077 C70.721443,1.75939533 70.1599431,1.45625893 69.5516515,1.26860306 C67.6871837,0.69480916 65.5851583,0.994336795 64.2965879,2.61467304 C61.0571652,6.68175309 57.9005277,10.8101822 54.8482716,15.0143954 L55.1254222,15.7361487 L55.8344958,17.5766197 L56.5435695,19.4170907 L62.3493349,34.5125618 L70.8150263,56.5152122 L53.1529737,41.2104327 L43.3123273,32.682917 L41.9481704,31.4992416 L40.5840135,30.3155661 L39.2378533,29.1499345 C38.9571034,29.9799508 38.852722,30.8929688 39.0398886,31.863727 C39.14427,32.4086508 39.3314367,32.9680096 39.6085873,33.534586 C39.6445809,33.6067613 39.6625777,33.6825454 39.6985712,33.7547208 C39.9793212,34.3501673 40.2060808,34.9636576 40.4256417,35.5771479 L36.8586773,39.1534357 C36.052421,39.1245656 35.2461647,39.0812604 34.4399083,39.0271289 C33.6624469,38.9729974 32.8813861,38.9080396 32.107524,38.8142116 C30.9377324,38.6734697 29.7679409,38.4858139 28.6089474,38.2151564 C25.8914317,37.5800134 22.5764224,39.0235201 21.9681308,41.9971439 C21.0035027,46.6885405 19.3621952,50.5138332 17.1449903,53.8194635 C14.632638,57.5653633 11.3392249,60.6292063 7.47711308,63.5126108 C5.60904597,64.9092035 3.63659746,66.2697086 1.50217781,67.6338224 C-0.254309189,68.7561488 -0.981379625,70.3837026 -0.999376418,72.0112564 C-1.01017449,72.7510535 -0.880597585,73.4908507 -0.621443766,74.1837339 C0.353982414,76.7676109 3.02470649,78.6766484 5.97258119,77.4785379 L86.4794349,112 L108,90.423184 L73.4029652,5.30681298 L73.4029652,5.30681298 Z"></path>
            </g>
        </g>
    </g>
</svg>