<?xml version="1.0" encoding="utf-8"?>

<!-- The icon can be used freely in both personal and commercial projects with no attribution required, but always appreciated. 
You may NOT sub-license, resell, rent, redistribute or otherwise transfer the icon without express written permission from iconmonstr.com -->

<!DOCTYPE svg PUBLIC "-//W3C//DTD SVG 1.1//EN" "http://www.w3.org/Graphics/SVG/1.1/DTD/svg11.dtd">
<svg version="1.1" xmlns="http://www.w3.org/2000/svg" xmlns:xlink="http://www.w3.org/1999/xlink" x="0px" y="0px"
	 width="512px" height="512px" viewBox="0 0 512 512" enable-background="new 0 0 512 512" xml:space="preserve">
<path id="bug-3-icon" d="M172.354,74.288c0-13.414,10.875-24.288,24.288-24.288c16.01,0,27.627,15.238,23.447,30.646
	c-1.572,5.802-0.728,11.992,2.344,17.16c6.808,11.457,18.406,18.512,33.566,18.591c14.951-0.079,26.702-7.039,33.566-18.591
	c3.071-5.167,3.916-11.358,2.344-17.16C287.736,65.257,299.326,50,315.357,50c13.413,0,24.288,10.875,24.288,24.288
	c0,11.646-8.174,21.294-18.974,23.708c-5.467,1.221-10.187,4.644-13.048,9.458c-11.033,18.569,4.981,34.892,18.004,51.468
	c-39.79,20.813-99.466,20.813-139.256,0c13.225-16.833,29.118-32.76,18.005-51.468c-2.862-4.815-7.581-8.237-13.049-9.458
	C180.527,95.583,172.354,85.934,172.354,74.288z M401.35,316.586h40.544c9.885,0,17.897-8.012,17.897-17.896
	c0-9.885-8.013-17.896-17.897-17.896h-40.797c-9.771,0-19.311-6.775-20.843-18.151c-1.558-11.682,4.861-19.785,12.986-22.989
	l37.897-14.945c9.196-3.626,13.71-14.02,10.084-23.215c-3.626-9.194-14.02-13.709-23.213-10.083l-38.969,15.368
	c-5.574,2.198-12.469,0.626-15.723-6.928c-3.806-8.833-8.119-17.086-12.895-24.576c-29.822,13.428-55.982,21.086-81.624,23.005V462
	c43.064-8.907,73.849-36.439,90.337-64.151c4.43-7.446,10.659-8.866,16.36-6.285l43.48,19.669
	c8.982,4.066,19.601,0.095,23.683-8.929c4.073-9.006,0.075-19.607-8.93-23.682l-41.102-18.593
	c-8.412-3.808-14.727-12.726-12.964-23.854C381.863,322.309,391.871,316.586,401.35,316.586z M243.201,198.279
	c-25.636-1.919-51.797-9.574-81.624-23.005c-4.664,7.314-8.886,15.355-12.626,23.955c-3.858,8.871-10.981,9.525-15.99,7.549
	L93.992,191.41c-9.194-3.626-19.588,0.889-23.214,10.083c-3.626,9.195,0.888,19.589,10.084,23.215l37.897,14.945
	c8.423,3.321,14.508,11.977,13.123,21.979c-1.806,13.076-11.594,19.162-20.979,19.162H70.106c-9.885,0-17.897,8.012-17.897,17.896
	c0,9.884,8.013,17.896,17.897,17.896h40.543c9.722,0,19.679,6.416,21.474,18.226c1.916,12.557-3.867,21.196-12.751,25.218
	l-41.102,18.593c-9.005,4.074-13.003,14.676-8.929,23.682c4.076,9.015,14.688,12.998,23.682,8.929l43.48-19.669
	c5.215-2.36,11.688-1.836,15.298,4.466c16.21,28.317,47.394,56.865,91.399,65.968V198.279z"/>
</svg>
