<?xml version="1.0" encoding="UTF-8" standalone="no"?>
<svg width="190px" height="181px" viewBox="0 0 190 181" version="1.1" xmlns="http://www.w3.org/2000/svg"
     xmlns:xlink="http://www.w3.org/1999/xlink" xmlns:sketch="http://www.bohemiancoding.com/sketch/ns">
    <!-- Generator: Sketch 3.0.1 (7597) - http://www.bohemiancoding.com/sketch -->
    <title>Slice 1</title>
    <desc>Created with Sketch.</desc>
    <defs></defs>
    <g stroke="none" stroke-width="1" fill="none" fill-rule="evenodd">
        <g transform="translate(0.000000, 5.000000)">
            <rect fill="#D33636" x="11" y="12" width="18" height="144"></rect>
            <circle fill="#D33636" cx="20" cy="156" r="20"></circle>
            <path d="M42.5116143,-7.43728537 L42.0657344,90.6507781 L60.0657344,90.6507781 L60.0657344,9.06695276 L42.5116143,-7.43728537 Z"
                  fill="#D33636" transform="translate(51.065734, 41.296080) rotate(-44.000000) translate(-51.065734, -41.296080) "></path>
            <rect fill="#161212" transform="translate(85.784765, 76.386208) rotate(-315.000000) translate(-85.784765, -76.386208) "
                  x="81.2055704" y="42.7504983" width="9.15838925" height="67.2714196"></rect>
        </g>
        <g transform="translate(132.503950, 88.189125) rotate(-180.000000) translate(-132.503950, -88.189125) translate(76.003950, 0.189125)">
            <rect fill="#D33636" x="11" y="12" width="18" height="144"></rect>
            <circle fill="#D33636" cx="20" cy="156" r="20"></circle>
            <path d="M42.6954108,-7.81142998 L42.0657344,90.6507781 L60.0657344,90.6507781 L60.1145995,8.80523464 L42.6954108,-7.81142998 Z"
                  fill="#D33636" transform="translate(51.065734, 41.296080) rotate(-44.000000) translate(-51.065734, -41.296080) "></path>
            <rect fill="#161212" transform="translate(85.784765, 76.386208) rotate(-315.000000) translate(-85.784765, -76.386208) "
                  x="81.2055704" y="42.7504983" width="9.15838925" height="67.2714196"></rect>
        </g>
    </g>
</svg>