<?xml version="1.0" encoding="UTF-8" standalone="no"?>
<svg width="320px" height="412px" viewBox="0 0 320 412" version="1.1" xmlns="http://www.w3.org/2000/svg"
     xmlns:xlink="http://www.w3.org/1999/xlink" xmlns:sketch="http://www.bohemiancoding.com/sketch/ns">
    <!-- Generator: Sketch 3.0.1 (7597) - http://www.bohemiancoding.com/sketch -->
    <title>Slice 1</title>
    <desc>Created with Sketch.</desc>
    <defs></defs>
    <g stroke="none" stroke-width="1">
        <path d="M320,0 L320,412 L0,412 L0,0 L320,0 L320,0 Z M97.648,329.251 L40.039,329.251 L40.039,372 L97.648,372 L97.648,329.251 L97.648,329.251 Z M97.648,255.429 L40.039,255.429 L40.039,298.179 L97.648,298.179 L97.648,255.429 L97.648,255.429 Z M97.648,181.608 L40.039,181.608 L40.039,224.359 L97.648,224.359 L97.648,181.608 L97.648,181.608 Z M189.068,329.251 L131.462,329.251 L131.462,372 L189.068,372 L189.068,329.251 L189.068,329.251 Z M189.068,255.429 L131.462,255.429 L131.462,298.179 L189.068,298.179 L189.068,255.429 L189.068,255.429 Z M189.068,181.608 L131.462,181.608 L131.462,224.359 L189.068,224.359 L189.068,181.608 L189.068,181.608 Z M280,255.429 L222.393,255.429 L222.393,372 L280,372 L280,255.429 L280,255.429 Z M280,181.608 L222.393,181.608 L222.393,224.359 L280,224.359 L280,181.608 L280,181.608 Z M40.039,40 L40.039,145.806 L280,145.806 L280,40 L40.039,40 Z"></path>
    </g>
</svg>