<?xml version="1.0" encoding="UTF-8" standalone="no"?>
<svg width="412px" height="412px" viewBox="0 0 412 412" version="1.1" xmlns="http://www.w3.org/2000/svg"
     xmlns:xlink="http://www.w3.org/1999/xlink" xmlns:sketch="http://www.bohemiancoding.com/sketch/ns">
    <!-- Generator: Sketch 3.0.1 (7597) - http://www.bohemiancoding.com/sketch -->
    <title>Slice 1</title>
    <desc>Created with Sketch.</desc>
    <defs></defs>
    <g stroke="none" stroke-width="1">
        <path d="M412,206 C412,319.771 319.771,412 206,412 C92.229,412 0,319.771 0,206 C0,92.229 92.229,0 206,0 C319.771,0 412,92.229 412,206 L412,206 Z M372,206 C372,114.245 297.742,40 206,40 C114.245,40 40,114.259 40,206 C40,297.755 114.258,372 206,372 C297.755,372 372,297.741 372,206 L372,206 Z M275.329,312.49 L208.002,245.166 L140.673,312.498 L104.509,276.312 L171.823,208.99 L104.502,141.673 L140.687,105.509 L207.997,172.81 L275.297,105.501 L311.49,141.671 L244.178,208.986 L311.498,276.296 L275.329,312.49 L275.329,312.49 Z"></path>
    </g>
</svg>