<?xml version="1.0" encoding="utf-8"?>
<!-- Generator: Adobe Illustrator 16.0.0, SVG Export Plug-In . SVG Version: 6.00 Build 0)  -->
<!DOCTYPE svg PUBLIC "-//W3C//DTD SVG 1.1//EN" "http://www.w3.org/Graphics/SVG/1.1/DTD/svg11.dtd">
<svg version="1.1" id="Layer_5" xmlns="http://www.w3.org/2000/svg" xmlns:xlink="http://www.w3.org/1999/xlink" x="0px" y="0px"
	 width="512px" height="512px" viewBox="0 0 100 100" enable-background="new 0 0 100 100" xml:space="preserve">
<path d="M75.456,8.363H24.544c-0.915,0-1.655,0.741-1.655,1.655v15.047c0,0.914,0.74,1.655,1.655,1.655h50.912
	c0.915,0,1.655-0.741,1.655-1.655V10.019C77.111,9.104,76.371,8.363,75.456,8.363z M50,21.463H28.27v-8.692H50V21.463z
	 M75.456,30.56H24.544c-0.915,0-1.655,0.741-1.655,1.655v15.047c0,0.915,0.74,1.656,1.655,1.656h50.912
	c0.915,0,1.655-0.741,1.655-1.656V32.215C77.111,31.301,76.371,30.56,75.456,30.56z M50,43.436H28.27v-8.692H50V43.436z
	 M75.456,52.543H24.544c-0.915,0-1.655,0.741-1.655,1.655v15.047c0,0.914,0.74,1.655,1.655,1.655h50.912
	c0.915,0,1.655-0.741,1.655-1.655V54.198C77.111,53.284,76.371,52.543,75.456,52.543z M50,66.068H28.27v-8.692H50V66.068z
	 M61.483,86.443h12.988v2.371H61.505v0.112c0,1.497-1.213,2.71-2.709,2.71H41.203c-1.496,0-2.71-1.213-2.71-2.71v-0.112H25.528
	v-2.371h12.988c0.116-1.39,1.268-2.484,2.687-2.484h5.399V78.54c0-1.496,1.213-2.71,2.709-2.71h1.355
	c1.496,0,2.709,1.214,2.709,2.71v5.419h5.42C60.215,83.959,61.366,85.054,61.483,86.443z"/>
</svg>
