<?xml version="1.0" encoding="utf-8"?>
<!-- Generator: Adobe Illustrator 16.0.0, SVG Export Plug-In . SVG Version: 6.00 Build 0)  -->
<!DOCTYPE svg PUBLIC "-//W3C//DTD SVG 1.1//EN" "http://www.w3.org/Graphics/SVG/1.1/DTD/svg11.dtd">
<svg version="1.1" id="Layer_1" xmlns="http://www.w3.org/2000/svg" xmlns:xlink="http://www.w3.org/1999/xlink" x="0px" y="0px"
	 width="512px" height="512px" viewBox="10 12 34 28" enable-background="new 0 0 50 50" xml:space="preserve">
<g>
	<path d="M16.604,28.945c-3.604,0-6.525-1.168-6.525-2.61v2.61c0,1.442,2.921,2.61,6.525,2.61c3.604,0,6.524-1.168,6.524-2.61v-2.61
		C23.128,27.777,20.208,28.945,16.604,28.945z"/>
	<path d="M16.604,32.86c-3.604,0-6.525-1.168-6.525-2.61v2.61c0,1.442,2.921,2.61,6.525,2.61c3.604,0,6.524-1.168,6.524-2.61v-2.61
		C23.128,31.692,20.208,32.86,16.604,32.86z"/>
	<path d="M16.604,19.81c-3.604,0-6.525,1.168-6.525,2.61v2.61c0,1.443,2.921,2.61,6.525,2.61c3.604,0,6.524-1.167,6.524-2.61v-2.61
		C23.128,20.978,20.208,19.81,16.604,19.81z M16.604,24.377c-3.585,0-5.873-1.159-5.873-1.958s2.287-1.958,5.873-1.958
		c3.585,0,5.872,1.159,5.872,1.958S20.188,24.377,16.604,24.377z"/>
	<path d="M35.154,32.86c-3.604,0-6.524-1.168-6.524-2.61v2.61c0,1.442,2.92,2.61,6.524,2.61c3.604,0,6.525-1.168,6.525-2.61v-2.61
		C41.68,31.692,38.759,32.86,35.154,32.86z"/>
	<path d="M35.154,23.725c-3.604,0-6.524,1.168-6.524,2.61v2.61c0,1.442,2.92,2.61,6.524,2.61c3.604,0,6.525-1.168,6.525-2.61v-2.61
		C41.68,24.893,38.759,23.725,35.154,23.725z M35.154,28.292c-3.585,0-5.872-1.159-5.872-1.958s2.287-1.958,5.872-1.958
		c3.585,0,5.873,1.159,5.873,1.958S38.74,28.292,35.154,28.292z"/>
	<rect x="23.379" y="28.445" width="5" height="1"/>
</g>
</svg>
