<?xml version="1.0" encoding="UTF-8" standalone="no"?>
<svg width="423px" height="413px" viewBox="0 0 423 413" version="1.1" xmlns="http://www.w3.org/2000/svg">
    <g stroke="none" stroke-width="1">
        <path d="M311.352,300.531 C310.614,301.015 148.169,403.498 148.169,403.498 L148.151,403.471 C122.838,418.557 92.701,412.541 74.131,393.973 C47.286,367.127 51.972,321.63 84.345,300.642 L102.915,324.487 C74.756,339.479 85.67,381.983 117.215,381.983 C142.296,381.983 156.693,353.212 141.611,333.155 C141.611,333.155 40.621,204.001 15.439,172.339 C-10.803,139.344 -1.319,95.112 34.778,77.816 L177.243,4.899 L177.265,4.943 C203.609,-6.767 235.171,2.834 250.193,28.452 C264.806,53.38 258.713,86.015 234.668,103.764 L93.838,183.342 L75.235,159.373 C103.371,144.34 92.402,101.895 60.896,101.895 C39.537,101.895 18.551,127.65 39.031,153.843 C63.61,185.279 163.526,312.498 163.526,312.498 C172.514,323.17 177.263,336.184 177.702,349.414 C177.702,349.414 277.471,286.53 292.84,276.674 C308.703,266.501 311.637,247.262 299.975,233.698 C299.93,233.646 297.096,230.17 292.537,224.577 C302.846,223.304 313.037,219.892 322.984,214.428 C348.602,245.801 336.793,283.849 311.352,300.531 L311.352,300.531 Z M93.506,81.449 C110.895,92.595 121.913,112.109 121.397,133.912 L214.192,81.352 C228.713,73.03 231.065,56.565 224.768,44.513 C217.467,30.537 201.282,26.849 189.025,32.559 L93.506,81.449 L93.506,81.449 Z M190.616143,232.425408 C192.527401,225.365812 194.495738,218.095388 194.495738,218.095388 L144.92,247.143285 L155.873559,262.162 L187.831708,242.710246 C187.831708,242.710246 188.704884,239.485005 190.616143,232.425408 Z M122.213,218.189795 L133.952507,234.287 L211.495738,188.852583 L199.275181,173.038701 L122.213,218.189795 Z M365.925588,17.3286861 L238.000417,145.17898 L295.040166,202.183731 L422.963708,74.3350654 L365.925588,17.3286861 Z M215.994,224.287 L289.237223,207.709955 L233.8822,152.390743 L215.994,224.287 Z"></path>
    </g>
</svg>