<?xml version="1.0" encoding="utf-8"?>

<!-- License Agreement at http://iconmonstr.com/license/ -->

<!DOCTYPE svg PUBLIC "-//W3C//DTD SVG 1.1//EN" "http://www.w3.org/Graphics/SVG/1.1/DTD/svg11.dtd">
<svg version="1.1" xmlns="http://www.w3.org/2000/svg" x="0px" y="0px"
	 width="512px" height="512px" viewBox="0 0 512 512" style="enable-background:new 0 0 512 512;" xml:space="preserve">
<path d="M372,253.459c-49.706,0-90,39.807-90,88.914s40.294,88.918,90,88.918s90-39.811,90-88.918
	S421.706,253.459,372,253.459z M346.486,391.361V295.57l78.117,47.896L346.486,391.361z M371.486,341.458v-1.234l0.728,0.446
	C371.979,340.938,371.728,341.194,371.486,341.458z M297.55,172.467c0,0,25.086,30.801,48.064,58.996
	c-10.337,2.393-20.249,6.19-29.498,11.299c-21.153-25.96-44.554-54.68-44.554-54.68L297.55,172.467z M262.45,377.189
	c-19.731,12.446-35.244,22.224-35.244,22.224c-0.438-13.23-5.188-26.244-14.176-36.916c0,0-99.916-127.22-124.495-158.655
	c-20.479-26.193,0.506-51.948,21.865-51.948c31.506,0,42.475,42.444,14.339,57.478l18.603,23.969l140.832-79.578
	c24.044-17.748,30.139-50.384,15.524-75.312c-15.021-25.618-46.585-35.219-72.929-23.509l-0.022-0.044L84.282,127.814
	c-36.097,17.297-45.581,61.528-19.339,94.523C90.125,254,191.115,383.154,191.115,383.154c15.082,20.057,0.686,48.828-24.396,48.828
	c-31.545,0-42.459-42.504-14.3-57.496l-18.57-23.845c-32.373,20.988-37.059,66.485-10.214,93.331
	c18.569,18.568,48.706,24.584,74.02,9.498l0.018,0.027c0,0,38.33-24.171,77.84-49.087
	C269.929,395.929,265.546,386.786,262.45,377.189z M238.528,82.56c12.257-5.71,28.444-2.021,35.745,11.954
	c6.296,12.052,3.945,28.517-10.577,36.839l-92.796,52.56c0.517-21.803-10.502-41.316-27.891-52.463L238.528,82.56z"/>
</svg>
