<?xml version="1.0" encoding="utf-8"?>

<!-- The icon can be used freely in both personal and commercial projects with no attribution required, but always appreciated. 
You may NOT sub-license, resell, rent, redistribute or otherwise transfer the icon without express written permission from iconmonstr.com -->

<!DOCTYPE svg PUBLIC "-//W3C//DTD SVG 1.1//EN" "http://www.w3.org/Graphics/SVG/1.1/DTD/svg11.dtd">
<svg version="1.1" xmlns="http://www.w3.org/2000/svg" xmlns:xlink="http://www.w3.org/1999/xlink" x="0px" y="0px"
	 width="512px" height="512px" viewBox="0 0 512 512" enable-background="new 0 0 512 512" xml:space="preserve">
<path id="monitoring-3-icon" d="M408.492,356.151c7.824-12.331,12.361-26.944,12.361-42.597c0-43.967-35.769-79.736-79.735-79.736
	c-43.965,0-79.734,35.77-79.734,79.736c0,43.964,35.77,79.734,79.734,79.734c14.878,0,28.812-4.101,40.745-11.222l53.863,53.864
	L462,409.658L408.492,356.151z M341.118,363.564c-27.575,0-50.009-22.436-50.009-50.01c0-27.577,22.434-50.012,50.009-50.012
	c27.576,0,50.013,22.435,50.013,50.012C391.131,341.129,368.694,363.564,341.118,363.564z M248.594,372.495H50V76.068h334.597
	v136.74c-10.134-4.39-21.053-7.299-32.485-8.441v-57.644H82.485V340.01h152.13C237.516,351.683,242.285,362.626,248.594,372.495z
	 M163.18,305.716l14.459-88.091l14.762,63.404c1.468,6.498,10.49,7.231,12.939,0.977l13.378-34.188c0,0,6.469,15.01,7.692,17.57
	c1.225,2.564,2.509,4.219,6.678,4.219h16.411v-13.592h-12l-12.836-28.751c-2.393-5.57-10.343-5.452-12.556,0.204l-11.34,28.986
	l-17.475-77.407c-1.654-7.321-12.128-6.911-13.315,0.405l-14.495,89.423l-14.822-55.06c-1.654-6.577-10.935-6.949-13.038-0.431
	l-11.027,42.648H104v13.575h17.937c2.45,0,5.105-1.984,5.8-4.333l6.245-22.353l15.921,63.357
	C151.704,313.438,162.001,312.965,163.18,305.716z"/>
</svg>
