<?xml version="1.0" encoding="UTF-8" standalone="no"?>
<svg width="396px" height="412px" viewBox="0 0 396 412" version="1.1" xmlns="http://www.w3.org/2000/svg">
    <g stroke="none" stroke-width="1">
        <path d="M395.417,105.431 L395.417,314.6 L206.584,412 L206.584,203.594 L375.92,114.5 L197.949,19.79 L20.6,113.411 L189.417,203.192 L189.417,412 L0.583,314.6 L0.583,104.341 L0.734,104.433 L0.583,104.106 L198,0 L395.417,105.431 L395.417,105.431 Z"></path>
        <path d="M198.5,44 C159.011522,44 127,75.5663317 127,114.506236 C127,153.445101 159.011522,185.013165 198.5,185.013165 C237.988825,185.013165 270,153.445447 270,114.506236 C270,75.5666781 237.988825,44 198.5,44 L198.5,44 Z M178.231485,153.350523 L178.231485,77.3934423 L240.290362,115.372329 L178.231485,153.350523 L178.231485,153.350523 Z"></path>
    </g>
</svg>