<?xml version="1.0" encoding="UTF-8" standalone="no"?>
<svg width="334px" height="219px" viewBox="0 0 334 219" version="1.1" xmlns="http://www.w3.org/2000/svg" xmlns:xlink="http://www.w3.org/1999/xlink" xmlns:sketch="http://www.bohemiancoding.com/sketch/ns">
    <title>toConfigure 2</title>
    <desc>Created with Sketch.</desc>
    <defs></defs>
    <g id="Page-1" stroke="none" stroke-width="1" fill="none" fill-rule="evenodd">
        <rect id="Rectangle-1" fill="#D8D8D8" x="0" y="0" width="334" height="219" rx="8"></rect>
        <path d="M264,121.585536 L264,95.7481854 L249.821821,90.786702 C244.413477,88.8946755 240.062781,84.8258013 237.866126,79.6087417 C237.863543,79.6087417 237.863543,79.6061987 237.863543,79.6036556 C235.659139,74.3713377 235.815397,68.4651126 238.284536,63.3497748 L244.74149,49.973351 L226.185497,31.7053775 L212.602649,38.0629934 C207.411258,40.4916026 201.406291,40.645457 196.094801,38.4775099 L196.087053,38.4775099 C190.785894,36.3095629 186.661192,32.0334305 184.739603,26.7057483 L179.698013,12.7444238 L153.456954,12.7444238 L148.415364,26.7057483 C146.491192,32.0283444 142.363907,36.312106 137.065331,38.4775099 L137.057583,38.4775099 C131.747384,40.645457 125.748874,40.4941457 120.553609,38.0629934 L106.968179,31.7053775 L88.4121854,49.973351 L94.8717219,63.3497748 C97.3382781,68.461298 97.4919536,74.3764238 95.2901325,79.6036556 C95.2901325,79.6061987 95.2901325,79.6087417 95.2875497,79.6112848 C93.090894,84.8334305 88.7453642,88.8921325 83.3370199,90.786702 L69.1575497,95.7481854 L69.1575497,121.585536 L83.3370199,126.548291 C88.7427815,128.440318 93.0934768,132.504106 95.2875497,137.723709 C95.2901325,137.726252 95.2901325,137.728795 95.2901325,137.731338 C97.4945364,142.961113 97.3408609,148.867338 94.8717219,153.982675 L88.4121854,167.359099 L106.968179,185.627073 L120.553609,179.272 C125.745,176.840848 131.749967,176.689536 137.060166,178.857483 C137.062748,178.857483 137.062748,178.860026 137.065331,178.860026 C142.369073,181.022887 146.488609,185.29902 148.415364,190.624159 L153.456954,204.588026 L179.698013,204.588026 L184.707318,190.715709 C186.646987,185.343523 190.811722,181.020344 196.158079,178.82951 C196.160662,178.82951 196.163245,178.826967 196.165828,178.826967 C201.426954,176.671735 207.369934,176.820503 212.517417,179.228768 L226.185497,185.625801 L244.74149,167.357828 L238.281954,153.975046 C235.815397,148.866066 235.661722,142.95857 237.86096,137.736424 C237.86096,137.733881 237.863543,137.731338 237.863543,137.731338 C240.067947,132.504106 244.413477,128.440318 249.826987,126.543205 L264,121.585536 L264,121.585536 Z M166.578775,143.842278 C146.847616,143.842278 130.85245,128.091921 130.85245,108.665589 C130.85245,89.2379868 146.847616,73.4876291 166.578775,73.4876291 C186.309934,73.4876291 202.306391,89.2379868 202.306391,108.665589 C202.306391,128.093192 186.309934,143.842278 166.578775,143.842278 L166.578775,143.842278 Z" id="gear-9-icon" fill="#D00000"></path>
    </g>
</svg>