<?xml version="1.0" encoding="utf-8"?>

<!-- The icon can be used freely in both personal and commercial projects with no attribution required, but always appreciated. 
You may NOT sub-license, resell, rent, redistribute or otherwise transfer the icon without express written permission from iconmonstr.com -->

<!DOCTYPE svg PUBLIC "-//W3C//DTD SVG 1.1//EN" "http://www.w3.org/Graphics/SVG/1.1/DTD/svg11.dtd">
<svg version="1.1" xmlns="http://www.w3.org/2000/svg" xmlns:xlink="http://www.w3.org/1999/xlink" x="0px" y="0px"
	 width="512px" height="512px" viewBox="0 0 512 512" enable-background="new 0 0 512 512" xml:space="preserve">
<path id="lock-11-icon" d="M160.667,100c-33.451,0-60.666,27.215-60.666,60.667v62.666h-50v-62.666
	C50.001,99.645,99.646,50,160.667,50s110.666,49.645,110.666,110.667v62.666h-50v-62.666C221.333,127.215,194.118,100,160.667,100z
	 M461.999,253.333V462h-296V253.333H461.999z M340.999,341c0-14.912-12.088-27-27-27s-27,12.088-27,27
	c0,7.811,3.318,14.844,8.619,19.773c4.385,4.075,6.881,9.8,6.881,15.785V399.5h23v-22.941c0-5.989,2.494-11.708,6.881-15.785
	C337.683,355.844,340.999,348.811,340.999,341z"/>
</svg>
