<?xml version="1.0" encoding="utf-8"?>


<!-- The icon can be used freely in both personal and commercial projects with no attribution required, but always appreciated. 
You may NOT sub-license, resell, rent, redistribute or otherwise transfer the icon without express written permission from iconmonstr.com -->


<!DOCTYPE svg PUBLIC "-//W3C//DTD SVG 1.1//EN" "http://www.w3.org/Graphics/SVG/1.1/DTD/svg11.dtd">

<svg version="1.1" xmlns="http://www.w3.org/2000/svg" xmlns:xlink="http://www.w3.org/1999/xlink" x="0px" y="0px"

	 width="512px" height="512px" viewBox="0 0 512 512" enable-background="new 0 0 512 512" xml:space="preserve">

<path id="github-2-square-icon" d="M153.732,307.168c0,0.757-0.866,1.369-1.933,1.369c-1.067,0-1.933-0.612-1.933-1.369

	c0-0.758,0.865-1.371,1.933-1.371C152.866,305.797,153.732,306.41,153.732,307.168z M156.4,310.297c-1.248,0-2.26,0.719-2.26,1.604

	s1.012,1.603,2.26,1.603c1.247,0,2.259-0.718,2.259-1.603S157.647,310.297,156.4,310.297z M161.467,315.553

	c-1.387,0-2.511,0.798-2.511,1.781c0,0.984,1.124,1.781,2.511,1.781s2.512-0.797,2.512-1.781

	C163.979,316.351,162.854,315.553,161.467,315.553z M147.066,302.064c-0.91,0-1.648,0.524-1.648,1.17

	c0,0.645,0.738,1.168,1.648,1.168c0.909,0,1.647-0.523,1.647-1.168C148.714,302.589,147.976,302.064,147.066,302.064z

	 M167.334,320.854c-1.541,0-2.791,0.888-2.791,1.98c0,1.094,1.25,1.979,2.791,1.979c1.539,0,2.789-0.885,2.789-1.979

	C170.123,321.741,168.873,320.854,167.334,320.854z M142.4,299.115c-0.819,0-1.483,0.471-1.483,1.053

	c0,0.58,0.664,1.051,1.483,1.051c0.818,0,1.482-0.471,1.482-1.051C143.883,299.586,143.219,299.115,142.4,299.115z M175.268,325.832

	c-1.713,0-3.101,0.986-3.101,2.201s1.388,2.199,3.101,2.199c1.711,0,3.1-0.984,3.1-2.199S176.979,325.832,175.268,325.832z

	 M205.699,329.266c-1.711,0-3.1,0.986-3.1,2.201s1.389,2.199,3.1,2.199c1.713,0,3.101-0.984,3.101-2.199

	S207.412,329.266,205.699,329.266z M195.467,329.066c-1.713,0-3.1,0.986-3.1,2.201c0,1.213,1.387,2.199,3.1,2.199

	c1.711,0,3.1-0.986,3.1-2.199C198.566,330.053,197.178,329.066,195.467,329.066z M462,50v412H50V50H462z M420.8,250.66

	c-18.316-1.777-36.534-1.936-54.231-0.584c2.845-9.078,4.344-19.332,4.235-30.992c-0.233-24.771-8.493-44.064-21.474-60.076

	c2.492-15.082,0.614-30.162-4.09-45.249c-18.549,1.519-35.242,7.594-50.107,18.148c-27.779-5.635-55.557-5.995-83.337,0

	c-17.339-11.702-34.364-17.441-51.128-18.148c-4.969,16.612-5.734,32.987-1.533,49.086c-14.624,15.518-20.214,34.355-19.939,55.215

	c0.156,11.941,1.996,22.567,5.391,31.961c-17.438-1.279-35.361-1.108-53.387,0.639l0.295,3.055

	c18.357-1.782,36.607-1.929,54.336-0.542c0.65,1.579,1.306,3.151,2.053,4.653c-19.208-0.507-36.494,1.162-52.684,5.143l0.73,2.979

	c16.432-4.038,34.033-5.664,53.686-5.003c12.997,23.091,38.017,36.659,74.451,40.964c-8.465,6.875-13.016,14.985-14.188,24.161

	c0,0-3.83,0-19.297,0c-25.915,0-32.98-33.043-59.822-29.784c26.04,12.914,20.84,54.193,62.51,54.193c14.004,0,16.98,0,17.506,0

	v37.837c0.186,6.114-2.476,10.203-6.775,13.038c14.924,1.506,26.139-5.944,26.139-15.084c0-9.141,0-45.559,0-50.014

	c0-4.456,4.666-4.801,4.666-4.801v58.395c0.197,5.811-2.627,9.113-5.625,12.271c13.147,0.523,25.514-2.103,26.074-13.292

	c0,0,0-53.076,0-55.887c0-2.81,4.604-2.879,4.604,0s0,53.265,0,53.265c0.136,9.44,8.289,17.094,25.562,15.914

	c-4.621-3.72-6.039-7.479-6.039-12.921c0-5.439,0-57.744,0-57.744s4.761-0.244,4.761,4.801c0,5.044,0,40.264,0,48.704

	c0,10.84,13.013,15.312,27.863,14.892c-4.865-3.646-8.158-7.992-8.179-13.805v-58.572c-0.503-8.609-4.003-16.726-10.866-24.287

	c33.305-5.113,57.311-18.408,69.264-42.236c19.717-0.678,37.371,0.945,53.845,4.996l0.731-2.979

	c-16.314-4.01-33.744-5.676-53.133-5.131c0.671-1.513,1.336-3.032,1.91-4.629c17.912-1.438,36.366-1.297,54.928,0.506L420.8,250.66z

	 M185.1,328.732c-1.711,0-3.1,0.986-3.1,2.201c0,1.214,1.389,2.199,3.1,2.199c1.713,0,3.1-0.985,3.1-2.199

	C188.199,329.719,186.812,328.732,185.1,328.732z"/>

</svg>

