<?xml version="1.0" encoding="utf-8"?>
<!-- Generator: Adobe Illustrator 16.0.4, SVG Export Plug-In . SVG Version: 6.00 Build 0)  -->
<!DOCTYPE svg PUBLIC "-//W3C//DTD SVG 1.1//EN" "http://www.w3.org/Graphics/SVG/1.1/DTD/svg11.dtd">
<svg version="1.1" id="Capa_1" xmlns="http://www.w3.org/2000/svg" xmlns:xlink="http://www.w3.org/1999/xlink" x="0px" y="0px"
	 width="512px" height="512px" viewBox="0 0 512 512" enable-background="new 0 0 512 512" xml:space="preserve">
<path d="M192,305.723V248.61c0-7.564,3.348-14.718,9.427-20.143c6.08-5.424,14.096-8.413,22.573-8.413v-28.555
	c-35.2,0-64,25.7-64,57.111v42.833c0,7.886-7.164,14.279-16,14.279h-16v28.555h16c8.837,0,16,6.395,16,14.279v42.838
	c0,31.406,28.8,57.106,64,57.106v-28.556c-8.477,0-16.494-2.988-22.573-8.413c-6.079-5.426-9.427-12.577-9.427-20.14v-57.117
	c0-7.885-7.164-14.276-16-14.276C184.837,320,192,313.605,192,305.723z M320,334.277v57.117c0,7.562-3.348,14.713-9.427,20.139
	c-6.079,5.425-14.095,8.413-22.573,8.413v28.556c35.201,0,64-25.7,64-57.107v-42.838c0-7.886,7.164-14.279,16-14.279h16v-28.555h-16
	c-8.836,0-16-6.395-16-14.279V248.61c0-31.412-28.799-57.111-64-57.111v28.555c8.479,0,16.494,2.989,22.573,8.415
	c6.08,5.424,9.427,12.578,9.427,20.142v57.114c0,7.883,7.164,14.276,16,14.276C327.164,320,320,326.395,320,334.277z
	 M451.716,99.715l-71.432-71.431C364.728,12.728,334,0,312,0H72C50,0,32,18,32,40v432c0,22,18,40,40,40h368c22,0,40-18,40-40V168
	C480,146,467.272,115.271,451.716,99.715z M429.089,122.343c1.565,1.565,3.125,3.487,4.64,5.657H352V46.272
	c2.17,1.515,4.092,3.075,5.657,4.64L429.089,122.343z M448,472c0,4.336-3.664,8-8,8H72c-4.336,0-8-3.664-8-8V40c0-4.336,3.664-8,8-8
	h240c2.416,0,5.127,0.305,8,0.852V160h127.148c0.547,2.873,0.852,5.583,0.852,8V472z"/>
</svg>
