<?xml version="1.0" encoding="UTF-8" standalone="no"?>
<svg width="25px" height="25px" viewBox="0 0 25 25" version="1.1" xmlns="http://www.w3.org/2000/svg"
     xmlns:xlink="http://www.w3.org/1999/xlink" xmlns:sketch="http://www.bohemiancoding.com/sketch/ns">
    <!-- Generator: Sketch 3.0.4 (8054) - http://www.bohemiancoding.com/sketch -->
    <title>Slice 2</title>
    <desc>Created with Sketch.</desc>
    <defs></defs>
    <g stroke="none" stroke-width="1" fill-rule="evenodd">
        <g>
            <path d="M12.5,25 C19.4035597,25 25,19.4035597 25,12.5 C25,5.59644029 19.4035597,0 12.5,0 C5.59644029,0
            0,5.59644029 0,12.5 C0,19.4035597 5.59644029,25 12.5,25 L12.5,25 L12.5,25 Z M12.5,24 C18.8512749,24 24,18.8512749
            24,12.5 C24,6.1487251 18.8512749,1 12.5,1 C6.1487251,1 1,6.1487251 1,12.5 C1,18.8512749 6.1487251,24 12.5,24
            L12.5,24 L12.5,24 Z M12.5,23 C18.2989902,23 23,18.2989902 23,12.5 C23,6.7010098 18.2989902,2 12.5,2 C6.7010098,2
            2,6.7010098 2,12.5 C2,18.2989902 6.7010098,23 12.5,23 L12.5,23 L12.5,23 Z M14.267767,14.267767
            C12.5000001,16.035534 5.78248558,19.2175144 5.78248558,19.2175144 C5.78248558,19.2175144 8.964466,12.5
            10.732233,10.732233 C12.5,8.9644661 19.2175144,5.78248558 19.2175144,5.78248558 C19.2175144,5.78248558
            16.0355338,12.4999999 14.267767,14.267767 L14.267767,14.267767 L14.267767,14.267767 Z M12.5,3 C12.2238576,3
            12,3.21505737 12,3.49047852 L12,6.5095215 C12,6.7804053 12.2319336,7 12.5,7 C12.7761424,7 13,6.7849426
            13,6.5095215 L13,3.49047852 C13,3.21959471 12.7680664,3 12.5,3 L12.5,3 L12.5,3 Z M22.043335,12.543335
            C22.043335,12.2671926 21.8282776,12.043335 21.5528564,12.043335 L18.5338135,12.043335 C18.2629297,12.043335
            18.043335,12.2752686 18.043335,12.543335 C18.043335,12.8194773 18.2583923,13.043335 18.5338135,13.043335
            L21.5528564,13.043335 C21.8237402,13.043335 22.043335,12.8114014 22.043335,12.543335 L22.043335,12.543335
            L22.043335,12.543335 Z M12.5,22.0866699 C12.7761424,22.0866699 13,21.8716125 13,21.5961914 L13,18.5771484
            C13,18.3062646 12.7680664,18.0866699 12.5,18.0866699 C12.2238576,18.0866699 12,18.3017273 12,18.5771484
            L12,21.5961914 C12,21.8670752 12.2319336,22.0866699 12.5,22.0866699 L12.5,22.0866699 L12.5,22.0866699 Z
            M2.95666504,12.543335 C2.95666504,12.8194773 3.17172241,13.043335 3.44714355,13.043335 L6.4661865,13.043335
            C6.7370703,13.043335 6.956665,12.8114014 6.956665,12.543335 C6.956665,12.2671926 6.7416077,12.043335
            6.4661865,12.043335 L3.44714355,12.043335 C3.17625975,12.043335 2.95666504,12.2752686 2.95666504,12.543335
            L2.95666504,12.543335 L2.95666504,12.543335 Z M11.4254841,11.5 C10.3648239,12.5606602 7.9606598,17.0861447
            7.9606598,17.0861447 C7.9606598,17.0861447 12.4861443,14.6819805 13.5468044,13.6213203 L11.4254841,11.5
            L11.4254841,11.5 Z"/>
        </g>
    </g>
</svg>