<?xml version="1.0" encoding="UTF-8" standalone="no"?>
<svg width="412px" height="360px" viewBox="0 0 412 360" version="1.1" xmlns="http://www.w3.org/2000/svg" xmlns:xlink="http://www.w3.org/1999/xlink" xmlns:sketch="http://www.bohemiancoding.com/sketch/ns">
    <!-- Generator: Sketch 3.0 (7574) - http://www.bohemiancoding.com/sketch -->
    <title>iconmonstr-indent-icon</title>
    <desc>Created with Sketch.</desc>
    <defs></defs>
    <g id="Page-1" stroke="none" stroke-width="1">
        <path d="M0,0 L412,0 L412,40 L0,40 L0,0 L0,0 Z M161,80 L412,80 L412,120 L161,120 L161,80 L161,80 Z M249,160 L412,160 L412,200 L249,200 L249,160 L249,160 Z M161,240 L412,240 L412,280 L161,280 L161,240 L161,240 Z M0,320 L412,320 L412,360 L0,360 L0,320 L0,320 Z M0,100.673 L0,259.327 L116,180 L0,100.673 L0,100.673 Z" id="indent-icon"></path>
    </g>
</svg>