<?xml version="1.0" encoding="UTF-8" standalone="no"?>
<svg xmlns:xlink="http://www.w3.org/1999/xlink" xmlns:sketch="http://www.bohemiancoding.com/sketch/ns" width="336px" height="412px"
     viewBox="0 0 336 412" version="1.1" xmlns="http://www.w3.org/2000/svg">
    <!-- Generator: Sketch 3.0 (7574) - http://www.bohemiancoding.com/sketch -->
    <title>image-icon</title>
    <desc>Created with Sketch.</desc>
    <defs></defs>
    <g id="Page-1" stroke="none" stroke-width="1" fill="none" fill-rule="evenodd">
        <path d="M85.443,195.694 C85.443,183.583 95.263,173.762 107.376,173.762 C119.487,173.762 129.308,183.582 129.308,195.694 C129.308,207.807 119.488,217.627 107.376,217.627 C95.264,217.627 85.443,207.808 85.443,195.694 L85.443,195.694 Z M196.686,198.659 L160.331,250.313 L140.572,229.949 L84.825,305.098 L259.085,305.098 L196.686,198.659 L196.686,198.659 Z M209.818,40 L209.818,125.75 L295.682,125.75 L295.682,372 L40.317,372 L40.317,40 L209.818,40 L209.818,40 Z M234.818,0 L0.317,0 L0.317,412 L335.682,412 L335.682,100.75 L234.818,0 L234.818,0 Z"
              id="image-file-2-icon" class="treeFileIcon"></path>
    </g>
</svg>