<?xml version="1.0" encoding="utf-8"?>


<!-- The icon can be used freely in both personal and commercial projects with no attribution required, but always appreciated. 
You may NOT sub-license, resell, rent, redistribute or otherwise transfer the icon without express written permission from iconmonstr.com -->


<!DOCTYPE svg PUBLIC "-//W3C//DTD SVG 1.1//EN" "http://www.w3.org/Graphics/SVG/1.1/DTD/svg11.dtd">

<svg version="1.1" xmlns="http://www.w3.org/2000/svg" xmlns:xlink="http://www.w3.org/1999/xlink" x="0px" y="0px"

	 width="512px" height="512px" viewBox="0 0 512 512" enable-background="new 0 0 512 512" xml:space="preserve">

<path id="google-plus-square-rounded-icon" d="M209.035,235.669c-22.34-0.673-43.568-21.164-47.425-50.498

	c-3.858-29.341,11.122-51.789,33.458-51.124c22.329,0.671,41.439,24.737,45.294,54.07

	C244.215,217.455,231.363,236.333,209.035,235.669z M204.452,295.702c-33.279-0.366-61.481,21.029-61.481,45.829

	c0,25.309,24.033,46.375,57.314,46.375c42.547,0,63.102-19.773,63.102-45.082C263.387,318.698,241.378,295.702,204.452,295.702z

	 M461.945,101v312c0,27.614-22.386,50-50,50h-312c-27.614,0-50-22.386-50-50V101c0-27.614,22.386-50,50-50h312

	C439.56,51,461.945,73.386,461.945,101z M292.054,339.882c0-23.364-8.724-38.63-35.119-58.406

	c-26.771-19.524-33.313-30.555-7.761-50.31c14.398-11.133,24.488-25.973,24.488-44.295c0-19.961-8.162-38.071-23.51-46.864h21.755

	l18.521-19.438c0,0-69.817,0-82.879,0c-51.736,0-77.105,31.01-77.105,65.122c0,34.861,23.915,62.316,70.615,62.316

	c-7.24,14.617-4.332,28.117,7.514,37.771c-79.759,0-96.826,34.998-96.826,61.957c0,34.932,40.154,55.699,88.303,55.699

	C265.885,403.434,292.054,368.543,292.054,339.882z M400.146,162.626H361.91v-38.235h-19.117v38.235h-38.235v19.117h38.235v38.235

	h19.117v-38.235h38.235V162.626z"/>

</svg>

