<?xml version="1.0" encoding="utf-8"?>


<!-- The icon can be used freely in both personal and commercial projects with no attribution required, but always appreciated. 
You may NOT sub-license, resell, rent, redistribute or otherwise transfer the icon without express written permission from iconmonstr.com -->


<!DOCTYPE svg PUBLIC "-//W3C//DTD SVG 1.1//EN" "http://www.w3.org/Graphics/SVG/1.1/DTD/svg11.dtd">

<svg version="1.1" xmlns="http://www.w3.org/2000/svg" xmlns:xlink="http://www.w3.org/1999/xlink" x="0px" y="0px"

	 width="512px" height="512px" viewBox="0 0 512 512" enable-background="new 0 0 512 512" xml:space="preserve">

<path id="twitter-3-icon" d="M412,50H100c-27.614,0-50,22.386-50,50v312c0,27.614,22.386,50,50,50h312c27.614,0,50-22.386,50-50V100

	C462,72.386,439.614,50,412,50z M371.942,207.125c3.553,79.059-55.408,167.203-159.768,167.203

	c-31.743,0-61.289-9.305-86.164-25.253c29.821,3.515,59.586-4.758,83.218-23.278c-24.596-0.453-45.356-16.703-52.508-39.035

	c8.808,1.684,17.473,1.19,25.383-0.962c-27.03-5.433-45.692-29.784-45.083-55.826c7.577,4.211,16.245,6.74,25.46,7.032

	c-25.034-16.73-32.12-49.786-17.396-75.045c27.723,34.006,69.143,56.385,115.857,58.729c-8.199-35.16,18.474-69.019,54.755-69.019

	c16.168,0,30.776,6.825,41.029,17.75c12.804-2.52,24.833-7.198,35.694-13.639c-4.197,13.126-13.11,24.141-24.715,31.098

	c11.37-1.357,22.204-4.379,32.284-8.851C392.454,189.301,382.926,199.201,371.942,207.125z"/>

</svg>

