<?xml version="1.0" ?><!DOCTYPE svg  PUBLIC '-//W3C//DTD SVG 1.1//EN'  'http://www.w3.org/Graphics/SVG/1.1/DTD/svg11.dtd'>
<svg enable-background="new 0 0 512 512" height="512px" version="1.1" viewBox="0 0 512 512" width="512px" xml:space="default"
     xmlns="http://www.w3.org/2000/svg" xmlns:xlink="http://www.w3.org/1999/xlink">
    <g>
        <path d="M153.17,40.062c-4.816-8.394-15.531-11.295-23.924-6.482l-1.317,0.759   c-8.393,4.821-11.294,15.526-6.478,23.929l46.259,80.607c4.817,8.401,15.531,11.303,23.925,6.481l1.316-0.75   c8.397-4.821,11.295-15.535,6.478-23.929L153.17,40.062z"/>
        <g>
            <path d="M39.911,153.5l80.688,46.125c8.401,4.812,19.12,1.893,23.911-6.51l0.759-1.321   c4.804-8.393,1.884-19.106-6.514-23.91L58.059,121.75c-8.389-4.812-19.094-1.894-23.915,6.509l-0.75,1.321   C28.599,137.981,31.505,148.688,39.911,153.5z"/>
            <g>
                <path d="M128,255.526c0-9.68-7.847-17.526-17.526-17.526H17.526C7.847,238,0,245.847,0,255.526v1.947   C0,267.153,7.847,275,17.526,275h92.947c9.68,0,17.526-7.847,17.526-17.526V255.526z"/>
                <g>
                    <path d="M146.764,322.731l-0.781-1.304c-4.991-8.285-15.768-10.955-24.058-5.964l-79.599,48   c-8.29,4.982-10.96,15.75-5.969,24.054l0.79,1.304c4.996,8.276,15.764,10.955,24.059,5.955l79.598-47.991   C149.099,341.794,151.769,331.009,146.764,322.731z"/>
                    <g>
                        <path d="M191.567,366.606l-1.308-0.776c-8.331-4.92-19.081-2.152-24.005,6.179l-47.259,80.035   c-4.924,8.331-2.156,19.081,6.179,24.009l1.308,0.769c8.33,4.919,19.08,2.151,24.005-6.179l47.259-80.036   C202.67,382.268,199.902,371.518,191.567,366.606z"/>
                        <g>
                            <path d="M275,401.526c0-9.68-7.847-17.526-17.526-17.526h-1.947c-9.68,0-17.526,7.847-17.526,17.526   v92.947c0,9.68,7.847,17.526,17.526,17.526h1.947c9.68,0,17.526-7.847,17.526-17.526V401.526z"/>
                            <g>
                                <path d="M344.286,373.125c-4.812-8.394-15.526-11.304-23.92-6.482l-1.321,0.759   c-8.393,4.812-11.295,15.526-6.478,23.92l46.264,80.625c4.812,8.393,15.526,11.285,23.924,6.473l1.317-0.759   c8.393-4.812,11.294-15.526,6.478-23.92L344.286,373.125z"/>
                                <g>
                                    <path d="M472.099,358.5l-80.688-46.125c-8.401-4.812-19.111-1.894-23.906,6.5l-0.764,1.321   c-4.804,8.401-1.884,19.116,6.514,23.929l80.696,46.125c8.389,4.812,19.099,1.893,23.915-6.51l0.755-1.321   C483.411,374.018,480.51,363.312,472.099,358.5z"/>
                                    <g>
                                        <path d="M512,255.526c0-9.68-7.847-17.526-17.526-17.526h-92.947c-9.68,0-17.526,7.847-17.526,17.526   v1.947c0,9.68,7.847,17.526,17.526,17.526h92.947c9.68,0,17.526-7.847,17.526-17.526V255.526z"/>
                                        <g>
                                            <path d="M365.232,189.259l0.781,1.312c4.996,8.285,15.772,10.955,24.062,5.964l79.599-48   c8.29-4.982,10.955-15.759,5.969-24.054l-0.79-1.304c-4.996-8.276-15.764-10.955-24.059-5.955l-79.598,47.991   C362.902,170.205,360.232,180.981,365.232,189.259z"/>
                                            <g>
                                                <path d="M320.434,145.393l1.308,0.776c8.331,4.92,19.081,2.152,24.005-6.179l47.259-80.035   c4.924-8.33,2.156-19.08-6.179-24.01l-1.308-0.768c-8.331-4.92-19.081-2.151-24.005,6.179l-47.259,80.036   C309.331,129.731,312.099,140.473,320.434,145.393z"/>
                                                <g>
                                                    <path d="M275,17.526C275,7.847,267.153,0,257.474,0h-1.947C245.847,0,238,7.847,238,17.526v92.947   c0,9.68,7.847,17.526,17.526,17.526h1.947c9.68,0,17.526-7.847,17.526-17.526V17.526z"/>
                                                </g>
                                            </g>
                                        </g>
                                    </g>
                                </g>
                            </g>
                        </g>
                    </g>
                </g>
            </g>
        </g>
    </g>
</svg>































